<?xml version="1.0" encoding="UTF-8"?>
<svg xmlns="http://www.w3.org/2000/svg" xmlns:xlink="http://www.w3.org/1999/xlink" width="1024pt" height="1024pt" viewBox="0 0 1024 1024" version="1.1">
<g id="surface1">
<path style=" stroke:none;fill-rule:nonzero;fill:rgb(0%,0%,0%);fill-opacity:1;" d="M 501.5 379.082031 C 492.601562 380.820312 484.253906 383.992188 478.300781 387.894531 C 470.199219 393.199219 467.585938 396.234375 468.375 399.398438 C 469.285156 403.046875 472.101562 402.632812 477.398438 398.0625 C 486.472656 390.246094 499 386 513 386 C 526.101562 386 536.28125 389.625 547 398.105469 C 551.101562 401.351562 552.660156 402.070312 553.898438 401.289062 C 558.1875 398.585938 554.898438 393.484375 545 387.484375 C 532.847656 380.121094 514.398438 376.558594 501.5 379.082031 "/>
<path style=" stroke:none;fill-rule:nonzero;fill:rgb(0%,0%,0%);fill-opacity:1;" d="M 501.5 395.335938 C 494.199219 397.25 487.898438 400.3125 483.699219 403.980469 C 480.601562 406.6875 479.957031 407.871094 480.210938 410.398438 C 480.628906 414.601562 483.441406 414.941406 487.398438 411.269531 C 494.644531 404.550781 501.601562 401.886719 512 401.847656 C 521.300781 401.816406 528.550781 404.339844 535.300781 409.96875 C 540.800781 414.550781 541.195312 414.6875 542.929688 412.601562 C 546.226562 408.632812 539 401.476562 527.101562 396.929688 C 520.398438 394.371094 508.097656 393.601562 501.5 395.335938 "/>
<path style=" stroke:none;fill-rule:nonzero;fill:rgb(0%,0%,0%);fill-opacity:1;" d="M 501.199219 412.601562 C 493.199219 415.527344 488.691406 421.851562 492.398438 424.945312 C 493.609375 425.957031 495.050781 425.484375 499.851562 422.5 C 503.148438 420.449219 507.625 418.566406 509.898438 418.273438 C 514.800781 417.648438 521.550781 419.941406 526.101562 423.785156 C 528.5 425.808594 529.5625 426.171875 530.800781 425.394531 C 534.933594 422.792969 532.199219 417.753906 524.5 413.777344 C 519.222656 411.054688 507.101562 410.441406 501.199219 412.601562 "/>
<path style=" stroke:none;fill-rule:nonzero;fill:rgb(0%,0%,0%);fill-opacity:1;" d="M 382.078125 426.898438 C 380.925781 429.050781 380.503906 575.101562 381.621094 585.800781 C 382.355469 592.828125 381.101562 592.164062 397 593.9375 C 430.101562 597.628906 465.613281 610.710938 492.800781 629.234375 C 498.617188 633.195312 497.101562 630.28125 489.699219 623.28125 C 470.996094 605.585938 437.601562 591.625 401 586.203125 L 389.5 584.5 L 389 433 L 397.5 433 C 408.183594 433 426.398438 435.371094 439.398438 438.453125 C 463.5 444.164062 486.082031 454.722656 504.5 468.886719 C 509.800781 472.960938 510.25 473.148438 508.355469 470.5 C 502.519531 462.328125 486.398438 449.722656 473.5 443.238281 C 451.921875 432.398438 419.800781 425 394.300781 425 C 384.199219 425 383 425.1875 382.078125 426.898438 "/>
<path style=" stroke:none;fill-rule:nonzero;fill:rgb(0%,0%,0%);fill-opacity:1;" d="M 609.5 426.195312 C 589.699219 428.726562 567.589844 435.203125 551.800781 443.101562 C 538.898438 449.550781 530.9375 455.210938 521.980469 464.300781 C 514.296875 472.101562 513.445312 474.238281 520.199219 468.785156 C 536.335938 455.761719 566.101562 442.292969 590.101562 437.15625 C 600.644531 434.902344 614.601562 433.230469 626.5 432.792969 L 634.5 432.5 L 634.75 508.75 C 634.949219 569.449219 634.746094 585 633.75 585 C 633.058594 585 627.898438 585.65625 622.199219 586.46875 C 585.101562 591.753906 552.175781 605.964844 532.199219 625.324219 C 528.199219 629.199219 525 632.65625 525 633.101562 C 525 633.546875 527.800781 631.976562 531.300781 629.566406 C 559.242188 610.355469 593.699219 597.765625 629.699219 593.621094 C 637.300781 592.75 641.5 591.824219 642.085938 590.898438 C 643.050781 589.371094 643.371094 429.101562 642.414062 426.601562 C 641.894531 425.246094 639.851562 425.023438 629.148438 425.148438 C 622.148438 425.234375 613.371094 425.699219 609.5 426.195312 "/>
<path style=" stroke:none;fill-rule:nonzero;fill:rgb(0%,0%,0%);fill-opacity:1;" d="M 506.398438 430.332031 C 501.238281 434.761719 503.699219 443.308594 510.5 444.582031 C 519.300781 446.230469 524.296875 435.535156 517.300781 430.027344 C 513.898438 427.351562 509.738281 427.46875 506.398438 430.332031 "/>
<path style=" stroke:none;fill-rule:nonzero;fill:rgb(0%,0%,0%);fill-opacity:1;" d="M 580.960938 444.101562 C 577.195312 451.5 571.050781 459.609375 565.898438 463.976562 C 560.699219 468.382812 560.0625 469.960938 562.5 472.398438 C 564.269531 474.167969 568.101562 473.320312 573.601562 469.945312 C 575.5 468.78125 577.277344 467.984375 577.488281 468.199219 C 578.246094 468.984375 573.9375 483.300781 571.320312 488.699219 C 567.265625 497.0625 555.601562 508.433594 545.601562 513.777344 C 541.300781 516.074219 537.5625 517.863281 537.398438 517.699219 C 537.238281 517.539062 537.589844 515.601562 538.160156 513.5 C 540.339844 505.5 536.425781 493.257812 529.898438 487.652344 C 518.359375 477.742188 498.851562 481.300781 492.890625 494.398438 C 490.292969 500.101562 490.351562 509.121094 493.011719 514.601562 C 497.078125 522.964844 507.898438 530 516.699219 530 C 518 530 519 530.390625 519 530.898438 C 519 532.441406 510 539.230469 502.101562 543.648438 C 497.898438 546 493.472656 548.632812 492.199219 549.53125 C 489.601562 551.378906 489.339844 554.238281 491.601562 556.105469 C 495.339844 559.195312 513.554688 548.699219 525.441406 536.601562 C 532.414062 529.5 534.097656 528.328125 540.398438 526.199219 C 544.300781 524.882812 548.964844 522.898438 550.75 521.800781 C 552.550781 520.691406 554 520.113281 554 520.5 C 554 522.117188 544.253906 534.5 534.871094 544.800781 C 509.90625 572.199219 505.042969 578.632812 499.707031 591.300781 C 495.746094 600.699219 494.824219 613.847656 497.542969 622.101562 C 499.945312 629.398438 503.132812 634.695312 508 639.472656 L 512.101562 643.5 L 508.851562 636.5 C 505.980469 630.324219 505.554688 628.300781 505.214844 619.300781 C 504.464844 599.609375 510.523438 588.601562 538.941406 558 C 563.089844 532 573.5 516.898438 581.960938 495.601562 C 585.179688 487.5 588 476.523438 588 472.101562 C 588 468 588.808594 467.71875 592.5 470.539062 C 597.199219 474.132812 601.570312 475.253906 603.5 473.367188 C 604.300781 472.585938 605 471.410156 605 470.851562 C 605 470.269531 601.972656 466.550781 598.25 462.550781 C 594.441406 458.460938 589.691406 451.898438 587.351562 447.5 L 583.199219 439.699219 Z M 520.699219 492.679688 C 527.273438 495.8125 530.929688 504.898438 528.953125 513.199219 C 527.457031 519.5 525.867188 520.996094 520.699219 520.984375 C 505.398438 520.945312 495.328125 508.3125 502.300781 497.898438 C 506.511719 491.613281 514 489.492188 520.699219 492.679688 "/>
<path style=" stroke:none;fill-rule:nonzero;fill:rgb(0%,0%,0%);fill-opacity:1;" d="M 358.050781 462.949219 C 357.351562 464.246094 357 491.5 357 544.300781 L 357 623.699219 L 362.199219 622.738281 C 369.441406 621.402344 404.101562 622.539062 417 624.539062 C 451.109375 629.828125 473.101562 636.058594 508.5 650.472656 L 512.5 652.101562 L 508.5 648.523438 C 502.703125 643.339844 487.699219 633.320312 479.699219 629.289062 C 463.664062 621.214844 442.601562 614.738281 420.101562 610.964844 C 407 608.765625 382.4375 607.003906 375.300781 607.75 L 371 608.199219 L 370.75 584.351562 C 370.613281 571.25 370.476562 554.640625 370.449219 547.5 C 370.421875 540.355469 370.308594 517.949219 370.199219 497.75 L 370 461 L 364.550781 461 C 360.148438 461 358.898438 461.375 358.050781 462.949219 "/>
<path style=" stroke:none;fill-rule:nonzero;fill:rgb(0%,0%,0%);fill-opacity:1;" d="M 654 534.25 L 654 607.5 L 640.300781 607.675781 C 592.699219 608.28125 542.785156 624.488281 517.5 647.539062 L 512.5 652.101562 L 516.5 650.449219 C 518.695312 649.546875 524.199219 647.292969 528.699219 645.460938 C 554.992188 634.757812 590.800781 626.0625 621.199219 622.992188 C 627.726562 622.332031 640.601562 621.957031 650 622.148438 L 667 622.5 L 667 542.949219 C 667 482.449219 666.714844 463.113281 665.800781 462.199219 C 665.144531 461.542969 662.199219 461 659.300781 461 L 654 461 L 654 534.25 "/>
<path style=" stroke:none;fill-rule:nonzero;fill:rgb(0%,0%,0%);fill-opacity:1;" d="M 518.300781 604.75 C 517.65625 605.152344 516.609375 606.800781 516.046875 608.300781 C 513.746094 614.398438 520.175781 620.113281 525.800781 616.96875 C 532.160156 613.410156 530.199219 604.824219 522.898438 604.261719 C 521 604.117188 518.972656 604.332031 518.300781 604.75 "/>
</g>
</svg>
